<?xml version="1.0" encoding="utf-8" standalone="no"?>
<!DOCTYPE svg PUBLIC "-//W3C//DTD SVG 1.1//EN"
  "http://www.w3.org/Graphics/SVG/1.1/DTD/svg11.dtd">
<svg xmlns:xlink="http://www.w3.org/1999/xlink" width="720pt" height="432pt" viewBox="0 0 720 432" xmlns="http://www.w3.org/2000/svg" version="1.1">
 <metadata>
  <rdf:RDF xmlns:dc="http://purl.org/dc/elements/1.1/" xmlns:cc="http://creativecommons.org/ns#" xmlns:rdf="http://www.w3.org/1999/02/22-rdf-syntax-ns#">
   <cc:Work>
    <dc:type rdf:resource="http://purl.org/dc/dcmitype/StillImage"/>
    <dc:date>2023-10-05T22:32:55.888272</dc:date>
    <dc:format>image/svg+xml</dc:format>
    <dc:creator>
     <cc:Agent>
      <dc:title>Matplotlib v3.7.1, https://matplotlib.org/</dc:title>
     </cc:Agent>
    </dc:creator>
   </cc:Work>
  </rdf:RDF>
 </metadata>
 <defs>
  <style type="text/css">*{stroke-linejoin: round; stroke-linecap: butt}</style>
 </defs>
 <g id="figure_1">
  <g id="patch_1">
   <path d="M 0 432 
L 720 432 
L 720 0 
L 0 0 
z
" style="fill: #ffffff"/>
  </g>
  <g id="axes_1">
   <g id="patch_2">
    <path d="M 90 384.48 
L 648 384.48 
L 648 51.84 
L 90 51.84 
z
" style="fill: #ffffff"/>
   </g>
   <g id="matplotlib.axis_1">
    <g id="xtick_1">
     <g id="line2d_1">
      <path d="M 115.363636 384.48 
L 115.363636 51.84 
" clip-path="url(#p9d5d8f8aba)" style="fill: none; stroke: #b0b0b0; stroke-width: 0.8; stroke-linecap: square"/>
     </g>
     <g id="line2d_2">
      <defs>
       <path id="me387ac9eda" d="M 0 0 
L 0 3.5 
" style="stroke: #000000; stroke-width: 0.8"/>
      </defs>
      <g>
       <use xlink:href="#me387ac9eda" x="115.363636" y="384.48" style="stroke: #000000; stroke-width: 0.8"/>
      </g>
     </g>
     <g id="text_1">
      <!-- 0.0 -->
      <g transform="translate(95.48473 410.476094) scale(0.25 -0.25)">
       <defs>
        <path id="DejaVuSans-30" d="M 2034 4250 
Q 1547 4250 1301 3770 
Q 1056 3291 1056 2328 
Q 1056 1369 1301 889 
Q 1547 409 2034 409 
Q 2525 409 2770 889 
Q 3016 1369 3016 2328 
Q 3016 3291 2770 3770 
Q 2525 4250 2034 4250 
z
M 2034 4750 
Q 2819 4750 3233 4129 
Q 3647 3509 3647 2328 
Q 3647 1150 3233 529 
Q 2819 -91 2034 -91 
Q 1250 -91 836 529 
Q 422 1150 422 2328 
Q 422 3509 836 4129 
Q 1250 4750 2034 4750 
z
" transform="scale(0.015625)"/>
        <path id="DejaVuSans-2e" d="M 684 794 
L 1344 794 
L 1344 0 
L 684 0 
L 684 794 
z
" transform="scale(0.015625)"/>
       </defs>
       <use xlink:href="#DejaVuSans-30"/>
       <use xlink:href="#DejaVuSans-2e" x="63.623047"/>
       <use xlink:href="#DejaVuSans-30" x="95.410156"/>
      </g>
     </g>
    </g>
    <g id="xtick_2">
     <g id="line2d_3">
      <path d="M 216.818182 384.48 
L 216.818182 51.84 
" clip-path="url(#p9d5d8f8aba)" style="fill: none; stroke: #b0b0b0; stroke-width: 0.8; stroke-linecap: square"/>
     </g>
     <g id="line2d_4">
      <g>
       <use xlink:href="#me387ac9eda" x="216.818182" y="384.48" style="stroke: #000000; stroke-width: 0.8"/>
      </g>
     </g>
     <g id="text_2">
      <!-- 0.2 -->
      <g transform="translate(196.939276 410.476094) scale(0.25 -0.25)">
       <defs>
        <path id="DejaVuSans-32" d="M 1228 531 
L 3431 531 
L 3431 0 
L 469 0 
L 469 531 
Q 828 903 1448 1529 
Q 2069 2156 2228 2338 
Q 2531 2678 2651 2914 
Q 2772 3150 2772 3378 
Q 2772 3750 2511 3984 
Q 2250 4219 1831 4219 
Q 1534 4219 1204 4116 
Q 875 4013 500 3803 
L 500 4441 
Q 881 4594 1212 4672 
Q 1544 4750 1819 4750 
Q 2544 4750 2975 4387 
Q 3406 4025 3406 3419 
Q 3406 3131 3298 2873 
Q 3191 2616 2906 2266 
Q 2828 2175 2409 1742 
Q 1991 1309 1228 531 
z
" transform="scale(0.015625)"/>
       </defs>
       <use xlink:href="#DejaVuSans-30"/>
       <use xlink:href="#DejaVuSans-2e" x="63.623047"/>
       <use xlink:href="#DejaVuSans-32" x="95.410156"/>
      </g>
     </g>
    </g>
    <g id="xtick_3">
     <g id="line2d_5">
      <path d="M 318.272727 384.48 
L 318.272727 51.84 
" clip-path="url(#p9d5d8f8aba)" style="fill: none; stroke: #b0b0b0; stroke-width: 0.8; stroke-linecap: square"/>
     </g>
     <g id="line2d_6">
      <g>
       <use xlink:href="#me387ac9eda" x="318.272727" y="384.48" style="stroke: #000000; stroke-width: 0.8"/>
      </g>
     </g>
     <g id="text_3">
      <!-- 0.4 -->
      <g transform="translate(298.393821 410.476094) scale(0.25 -0.25)">
       <defs>
        <path id="DejaVuSans-34" d="M 2419 4116 
L 825 1625 
L 2419 1625 
L 2419 4116 
z
M 2253 4666 
L 3047 4666 
L 3047 1625 
L 3713 1625 
L 3713 1100 
L 3047 1100 
L 3047 0 
L 2419 0 
L 2419 1100 
L 313 1100 
L 313 1709 
L 2253 4666 
z
" transform="scale(0.015625)"/>
       </defs>
       <use xlink:href="#DejaVuSans-30"/>
       <use xlink:href="#DejaVuSans-2e" x="63.623047"/>
       <use xlink:href="#DejaVuSans-34" x="95.410156"/>
      </g>
     </g>
    </g>
    <g id="xtick_4">
     <g id="line2d_7">
      <path d="M 419.727273 384.48 
L 419.727273 51.84 
" clip-path="url(#p9d5d8f8aba)" style="fill: none; stroke: #b0b0b0; stroke-width: 0.8; stroke-linecap: square"/>
     </g>
     <g id="line2d_8">
      <g>
       <use xlink:href="#me387ac9eda" x="419.727273" y="384.48" style="stroke: #000000; stroke-width: 0.8"/>
      </g>
     </g>
     <g id="text_4">
      <!-- 0.6 -->
      <g transform="translate(399.848366 410.476094) scale(0.25 -0.25)">
       <defs>
        <path id="DejaVuSans-36" d="M 2113 2584 
Q 1688 2584 1439 2293 
Q 1191 2003 1191 1497 
Q 1191 994 1439 701 
Q 1688 409 2113 409 
Q 2538 409 2786 701 
Q 3034 994 3034 1497 
Q 3034 2003 2786 2293 
Q 2538 2584 2113 2584 
z
M 3366 4563 
L 3366 3988 
Q 3128 4100 2886 4159 
Q 2644 4219 2406 4219 
Q 1781 4219 1451 3797 
Q 1122 3375 1075 2522 
Q 1259 2794 1537 2939 
Q 1816 3084 2150 3084 
Q 2853 3084 3261 2657 
Q 3669 2231 3669 1497 
Q 3669 778 3244 343 
Q 2819 -91 2113 -91 
Q 1303 -91 875 529 
Q 447 1150 447 2328 
Q 447 3434 972 4092 
Q 1497 4750 2381 4750 
Q 2619 4750 2861 4703 
Q 3103 4656 3366 4563 
z
" transform="scale(0.015625)"/>
       </defs>
       <use xlink:href="#DejaVuSans-30"/>
       <use xlink:href="#DejaVuSans-2e" x="63.623047"/>
       <use xlink:href="#DejaVuSans-36" x="95.410156"/>
      </g>
     </g>
    </g>
    <g id="xtick_5">
     <g id="line2d_9">
      <path d="M 521.181818 384.48 
L 521.181818 51.84 
" clip-path="url(#p9d5d8f8aba)" style="fill: none; stroke: #b0b0b0; stroke-width: 0.8; stroke-linecap: square"/>
     </g>
     <g id="line2d_10">
      <g>
       <use xlink:href="#me387ac9eda" x="521.181818" y="384.48" style="stroke: #000000; stroke-width: 0.8"/>
      </g>
     </g>
     <g id="text_5">
      <!-- 0.8 -->
      <g transform="translate(501.302912 410.476094) scale(0.25 -0.25)">
       <defs>
        <path id="DejaVuSans-38" d="M 2034 2216 
Q 1584 2216 1326 1975 
Q 1069 1734 1069 1313 
Q 1069 891 1326 650 
Q 1584 409 2034 409 
Q 2484 409 2743 651 
Q 3003 894 3003 1313 
Q 3003 1734 2745 1975 
Q 2488 2216 2034 2216 
z
M 1403 2484 
Q 997 2584 770 2862 
Q 544 3141 544 3541 
Q 544 4100 942 4425 
Q 1341 4750 2034 4750 
Q 2731 4750 3128 4425 
Q 3525 4100 3525 3541 
Q 3525 3141 3298 2862 
Q 3072 2584 2669 2484 
Q 3125 2378 3379 2068 
Q 3634 1759 3634 1313 
Q 3634 634 3220 271 
Q 2806 -91 2034 -91 
Q 1263 -91 848 271 
Q 434 634 434 1313 
Q 434 1759 690 2068 
Q 947 2378 1403 2484 
z
M 1172 3481 
Q 1172 3119 1398 2916 
Q 1625 2713 2034 2713 
Q 2441 2713 2670 2916 
Q 2900 3119 2900 3481 
Q 2900 3844 2670 4047 
Q 2441 4250 2034 4250 
Q 1625 4250 1398 4047 
Q 1172 3844 1172 3481 
z
" transform="scale(0.015625)"/>
       </defs>
       <use xlink:href="#DejaVuSans-30"/>
       <use xlink:href="#DejaVuSans-2e" x="63.623047"/>
       <use xlink:href="#DejaVuSans-38" x="95.410156"/>
      </g>
     </g>
    </g>
    <g id="xtick_6">
     <g id="line2d_11">
      <path d="M 622.636364 384.48 
L 622.636364 51.84 
" clip-path="url(#p9d5d8f8aba)" style="fill: none; stroke: #b0b0b0; stroke-width: 0.8; stroke-linecap: square"/>
     </g>
     <g id="line2d_12">
      <g>
       <use xlink:href="#me387ac9eda" x="622.636364" y="384.48" style="stroke: #000000; stroke-width: 0.8"/>
      </g>
     </g>
     <g id="text_6">
      <!-- 1.0 -->
      <g transform="translate(602.757457 410.476094) scale(0.25 -0.25)">
       <defs>
        <path id="DejaVuSans-31" d="M 794 531 
L 1825 531 
L 1825 4091 
L 703 3866 
L 703 4441 
L 1819 4666 
L 2450 4666 
L 2450 531 
L 3481 531 
L 3481 0 
L 794 0 
L 794 531 
z
" transform="scale(0.015625)"/>
       </defs>
       <use xlink:href="#DejaVuSans-31"/>
       <use xlink:href="#DejaVuSans-2e" x="63.623047"/>
       <use xlink:href="#DejaVuSans-30" x="95.410156"/>
      </g>
     </g>
    </g>
    <g id="text_7">
     <!-- $\beta$ -->
     <g transform="translate(359.4 442.775312) scale(0.3 -0.3)">
      <defs>
       <path id="DejaVuSans-Oblique-3b2" d="M 872 216 
L 572 -1331 
L -6 -1331 
L 928 3478 
Q 1206 4903 2538 4903 
Q 3888 4903 3659 3700 
Q 3503 2844 2894 2531 
Q 3713 2250 3553 1416 
Q 3272 -69 1759 -66 
Q 1097 -63 872 216 
z
M 1019 966 
Q 1259 422 1875 425 
Q 2775 425 2966 1406 
Q 3138 2288 1675 2219 
L 1778 2750 
Q 2909 2731 3106 3750 
Q 3241 4438 2509 4434 
Q 1691 4434 1503 3459 
L 1019 966 
z
" transform="scale(0.015625)"/>
      </defs>
      <use xlink:href="#DejaVuSans-Oblique-3b2" transform="translate(0 0.390625)"/>
     </g>
    </g>
   </g>
   <g id="matplotlib.axis_2">
    <g id="ytick_1">
     <g id="line2d_13">
      <path d="M 90 303.950596 
L 648 303.950596 
" clip-path="url(#p9d5d8f8aba)" style="fill: none; stroke: #b0b0b0; stroke-width: 0.8; stroke-linecap: square"/>
     </g>
     <g id="line2d_14">
      <defs>
       <path id="md4a63b96bd" d="M 0 0 
L -3.5 0 
" style="stroke: #000000; stroke-width: 0.8"/>
      </defs>
      <g>
       <use xlink:href="#md4a63b96bd" x="90" y="303.950596" style="stroke: #000000; stroke-width: 0.8"/>
      </g>
     </g>
     <g id="text_8">
      <!-- 0.25 -->
      <g transform="translate(27.335938 313.448642) scale(0.25 -0.25)">
       <defs>
        <path id="DejaVuSans-35" d="M 691 4666 
L 3169 4666 
L 3169 4134 
L 1269 4134 
L 1269 2991 
Q 1406 3038 1543 3061 
Q 1681 3084 1819 3084 
Q 2600 3084 3056 2656 
Q 3513 2228 3513 1497 
Q 3513 744 3044 326 
Q 2575 -91 1722 -91 
Q 1428 -91 1123 -41 
Q 819 9 494 109 
L 494 744 
Q 775 591 1075 516 
Q 1375 441 1709 441 
Q 2250 441 2565 725 
Q 2881 1009 2881 1497 
Q 2881 1984 2565 2268 
Q 2250 2553 1709 2553 
Q 1456 2553 1204 2497 
Q 953 2441 691 2322 
L 691 4666 
z
" transform="scale(0.015625)"/>
       </defs>
       <use xlink:href="#DejaVuSans-30"/>
       <use xlink:href="#DejaVuSans-2e" x="63.623047"/>
       <use xlink:href="#DejaVuSans-32" x="95.410156"/>
       <use xlink:href="#DejaVuSans-35" x="159.033203"/>
      </g>
     </g>
    </g>
    <g id="ytick_2">
     <g id="line2d_15">
      <path d="M 90 224.95373 
L 648 224.95373 
" clip-path="url(#p9d5d8f8aba)" style="fill: none; stroke: #b0b0b0; stroke-width: 0.8; stroke-linecap: square"/>
     </g>
     <g id="line2d_16">
      <g>
       <use xlink:href="#md4a63b96bd" x="90" y="224.95373" style="stroke: #000000; stroke-width: 0.8"/>
      </g>
     </g>
     <g id="text_9">
      <!-- 0.50 -->
      <g transform="translate(27.335938 234.451777) scale(0.25 -0.25)">
       <use xlink:href="#DejaVuSans-30"/>
       <use xlink:href="#DejaVuSans-2e" x="63.623047"/>
       <use xlink:href="#DejaVuSans-35" x="95.410156"/>
       <use xlink:href="#DejaVuSans-30" x="159.033203"/>
      </g>
     </g>
    </g>
    <g id="ytick_3">
     <g id="line2d_17">
      <path d="M 90 145.956865 
L 648 145.956865 
" clip-path="url(#p9d5d8f8aba)" style="fill: none; stroke: #b0b0b0; stroke-width: 0.8; stroke-linecap: square"/>
     </g>
     <g id="line2d_18">
      <g>
       <use xlink:href="#md4a63b96bd" x="90" y="145.956865" style="stroke: #000000; stroke-width: 0.8"/>
      </g>
     </g>
     <g id="text_10">
      <!-- 0.75 -->
      <g transform="translate(27.335938 155.454912) scale(0.25 -0.25)">
       <defs>
        <path id="DejaVuSans-37" d="M 525 4666 
L 3525 4666 
L 3525 4397 
L 1831 0 
L 1172 0 
L 2766 4134 
L 525 4134 
L 525 4666 
z
" transform="scale(0.015625)"/>
       </defs>
       <use xlink:href="#DejaVuSans-30"/>
       <use xlink:href="#DejaVuSans-2e" x="63.623047"/>
       <use xlink:href="#DejaVuSans-37" x="95.410156"/>
       <use xlink:href="#DejaVuSans-35" x="159.033203"/>
      </g>
     </g>
    </g>
    <g id="ytick_4">
     <g id="line2d_19">
      <path d="M 90 66.96 
L 648 66.96 
" clip-path="url(#p9d5d8f8aba)" style="fill: none; stroke: #b0b0b0; stroke-width: 0.8; stroke-linecap: square"/>
     </g>
     <g id="line2d_20">
      <g>
       <use xlink:href="#md4a63b96bd" x="90" y="66.96" style="stroke: #000000; stroke-width: 0.8"/>
      </g>
     </g>
     <g id="text_11">
      <!-- 1.00 -->
      <g transform="translate(27.335938 76.458047) scale(0.25 -0.25)">
       <use xlink:href="#DejaVuSans-31"/>
       <use xlink:href="#DejaVuSans-2e" x="63.623047"/>
       <use xlink:href="#DejaVuSans-30" x="95.410156"/>
       <use xlink:href="#DejaVuSans-30" x="159.033203"/>
      </g>
     </g>
    </g>
    <g id="ytick_5">
     <g id="line2d_21">
      <path d="M 90 367.148088 
L 648 367.148088 
" clip-path="url(#p9d5d8f8aba)" style="fill: none; stroke: #b0b0b0; stroke-width: 0.8; stroke-linecap: square"/>
     </g>
     <g id="line2d_22">
      <g>
       <use xlink:href="#md4a63b96bd" x="90" y="367.148088" style="stroke: #000000; stroke-width: 0.8"/>
      </g>
     </g>
     <g id="text_12">
      <!-- 0.05 -->
      <g transform="translate(27.335938 376.646135) scale(0.25 -0.25)">
       <use xlink:href="#DejaVuSans-30"/>
       <use xlink:href="#DejaVuSans-2e" x="63.623047"/>
       <use xlink:href="#DejaVuSans-30" x="95.410156"/>
       <use xlink:href="#DejaVuSans-35" x="159.033203"/>
      </g>
     </g>
    </g>
    <g id="text_13">
     <!-- Power -->
     <g transform="translate(17.096875 263.502187) rotate(-90) scale(0.3 -0.3)">
      <defs>
       <path id="DejaVuSans-50" d="M 1259 4147 
L 1259 2394 
L 2053 2394 
Q 2494 2394 2734 2622 
Q 2975 2850 2975 3272 
Q 2975 3691 2734 3919 
Q 2494 4147 2053 4147 
L 1259 4147 
z
M 628 4666 
L 2053 4666 
Q 2838 4666 3239 4311 
Q 3641 3956 3641 3272 
Q 3641 2581 3239 2228 
Q 2838 1875 2053 1875 
L 1259 1875 
L 1259 0 
L 628 0 
L 628 4666 
z
" transform="scale(0.015625)"/>
       <path id="DejaVuSans-6f" d="M 1959 3097 
Q 1497 3097 1228 2736 
Q 959 2375 959 1747 
Q 959 1119 1226 758 
Q 1494 397 1959 397 
Q 2419 397 2687 759 
Q 2956 1122 2956 1747 
Q 2956 2369 2687 2733 
Q 2419 3097 1959 3097 
z
M 1959 3584 
Q 2709 3584 3137 3096 
Q 3566 2609 3566 1747 
Q 3566 888 3137 398 
Q 2709 -91 1959 -91 
Q 1206 -91 779 398 
Q 353 888 353 1747 
Q 353 2609 779 3096 
Q 1206 3584 1959 3584 
z
" transform="scale(0.015625)"/>
       <path id="DejaVuSans-77" d="M 269 3500 
L 844 3500 
L 1563 769 
L 2278 3500 
L 2956 3500 
L 3675 769 
L 4391 3500 
L 4966 3500 
L 4050 0 
L 3372 0 
L 2619 2869 
L 1863 0 
L 1184 0 
L 269 3500 
z
" transform="scale(0.015625)"/>
       <path id="DejaVuSans-65" d="M 3597 1894 
L 3597 1613 
L 953 1613 
Q 991 1019 1311 708 
Q 1631 397 2203 397 
Q 2534 397 2845 478 
Q 3156 559 3463 722 
L 3463 178 
Q 3153 47 2828 -22 
Q 2503 -91 2169 -91 
Q 1331 -91 842 396 
Q 353 884 353 1716 
Q 353 2575 817 3079 
Q 1281 3584 2069 3584 
Q 2775 3584 3186 3129 
Q 3597 2675 3597 1894 
z
M 3022 2063 
Q 3016 2534 2758 2815 
Q 2500 3097 2075 3097 
Q 1594 3097 1305 2825 
Q 1016 2553 972 2059 
L 3022 2063 
z
" transform="scale(0.015625)"/>
       <path id="DejaVuSans-72" d="M 2631 2963 
Q 2534 3019 2420 3045 
Q 2306 3072 2169 3072 
Q 1681 3072 1420 2755 
Q 1159 2438 1159 1844 
L 1159 0 
L 581 0 
L 581 3500 
L 1159 3500 
L 1159 2956 
Q 1341 3275 1631 3429 
Q 1922 3584 2338 3584 
Q 2397 3584 2469 3576 
Q 2541 3569 2628 3553 
L 2631 2963 
z
" transform="scale(0.015625)"/>
      </defs>
      <use xlink:href="#DejaVuSans-50"/>
      <use xlink:href="#DejaVuSans-6f" x="56.677734"/>
      <use xlink:href="#DejaVuSans-77" x="117.859375"/>
      <use xlink:href="#DejaVuSans-65" x="199.646484"/>
      <use xlink:href="#DejaVuSans-72" x="261.169922"/>
     </g>
    </g>
   </g>
   <g id="line2d_23">
    <path d="M 115.363636 364.294874 
L 216.818182 349.436034 
L 318.272727 335.999849 
L 419.727273 286.048855 
L 521.181818 240.681971 
L 622.636364 201.637997 
" clip-path="url(#p9d5d8f8aba)" style="fill: none; stroke: #008000; stroke-width: 2; stroke-linecap: square"/>
    <defs>
     <path id="m28a0c7692e" d="M 0 3 
C 0.795609 3 1.55874 2.683901 2.12132 2.12132 
C 2.683901 1.55874 3 0.795609 3 0 
C 3 -0.795609 2.683901 -1.55874 2.12132 -2.12132 
C 1.55874 -2.683901 0.795609 -3 0 -3 
C -0.795609 -3 -1.55874 -2.683901 -2.12132 -2.12132 
C -2.683901 -1.55874 -3 -0.795609 -3 0 
C -3 0.795609 -2.683901 1.55874 -2.12132 2.12132 
C -1.55874 2.683901 -0.795609 3 0 3 
z
" style="stroke: #008000"/>
    </defs>
    <g clip-path="url(#p9d5d8f8aba)">
     <use xlink:href="#m28a0c7692e" x="115.363636" y="364.294874" style="fill: #008000; stroke: #008000"/>
     <use xlink:href="#m28a0c7692e" x="216.818182" y="349.436034" style="fill: #008000; stroke: #008000"/>
     <use xlink:href="#m28a0c7692e" x="318.272727" y="335.999849" style="fill: #008000; stroke: #008000"/>
     <use xlink:href="#m28a0c7692e" x="419.727273" y="286.048855" style="fill: #008000; stroke: #008000"/>
     <use xlink:href="#m28a0c7692e" x="521.181818" y="240.681971" style="fill: #008000; stroke: #008000"/>
     <use xlink:href="#m28a0c7692e" x="622.636364" y="201.637997" style="fill: #008000; stroke: #008000"/>
    </g>
   </g>
   <g id="line2d_24">
    <path d="M 115.363636 366.191748 
L 216.818182 319.086063 
L 318.272727 235.781715 
L 419.727273 178.717446 
L 521.181818 115.488339 
L 622.636364 87.50946 
" clip-path="url(#p9d5d8f8aba)" style="fill: none; stroke: #800080; stroke-width: 2; stroke-linecap: square"/>
    <defs>
     <path id="m710cdb3dde" d="M 0 3 
C 0.795609 3 1.55874 2.683901 2.12132 2.12132 
C 2.683901 1.55874 3 0.795609 3 0 
C 3 -0.795609 2.683901 -1.55874 2.12132 -2.12132 
C 1.55874 -2.683901 0.795609 -3 0 -3 
C -0.795609 -3 -1.55874 -2.683901 -2.12132 -2.12132 
C -2.683901 -1.55874 -3 -0.795609 -3 0 
C -3 0.795609 -2.683901 1.55874 -2.12132 2.12132 
C -1.55874 2.683901 -0.795609 3 0 3 
z
" style="stroke: #800080"/>
    </defs>
    <g clip-path="url(#p9d5d8f8aba)">
     <use xlink:href="#m710cdb3dde" x="115.363636" y="366.191748" style="fill: #800080; stroke: #800080"/>
     <use xlink:href="#m710cdb3dde" x="216.818182" y="319.086063" style="fill: #800080; stroke: #800080"/>
     <use xlink:href="#m710cdb3dde" x="318.272727" y="235.781715" style="fill: #800080; stroke: #800080"/>
     <use xlink:href="#m710cdb3dde" x="419.727273" y="178.717446" style="fill: #800080; stroke: #800080"/>
     <use xlink:href="#m710cdb3dde" x="521.181818" y="115.488339" style="fill: #800080; stroke: #800080"/>
     <use xlink:href="#m710cdb3dde" x="622.636364" y="87.50946" style="fill: #800080; stroke: #800080"/>
    </g>
   </g>
   <g id="line2d_25">
    <path d="M 115.363636 366.824039 
L 216.818182 356.707382 
L 318.272727 341.532396 
L 419.727273 311.656643 
L 521.181818 278.93558 
L 622.636364 254.434301 
" clip-path="url(#p9d5d8f8aba)" style="fill: none; stroke: #0000ff; stroke-width: 2; stroke-linecap: square"/>
    <defs>
     <path id="m4f032314a6" d="M 0 3 
C 0.795609 3 1.55874 2.683901 2.12132 2.12132 
C 2.683901 1.55874 3 0.795609 3 0 
C 3 -0.795609 2.683901 -1.55874 2.12132 -2.12132 
C 1.55874 -2.683901 0.795609 -3 0 -3 
C -0.795609 -3 -1.55874 -2.683901 -2.12132 -2.12132 
C -2.683901 -1.55874 -3 -0.795609 -3 0 
C -3 0.795609 -2.683901 1.55874 -2.12132 2.12132 
C -1.55874 2.683901 -0.795609 3 0 3 
z
" style="stroke: #0000ff"/>
    </defs>
    <g clip-path="url(#p9d5d8f8aba)">
     <use xlink:href="#m4f032314a6" x="115.363636" y="366.824039" style="fill: #0000ff; stroke: #0000ff"/>
     <use xlink:href="#m4f032314a6" x="216.818182" y="356.707382" style="fill: #0000ff; stroke: #0000ff"/>
     <use xlink:href="#m4f032314a6" x="318.272727" y="341.532396" style="fill: #0000ff; stroke: #0000ff"/>
     <use xlink:href="#m4f032314a6" x="419.727273" y="311.656643" style="fill: #0000ff; stroke: #0000ff"/>
     <use xlink:href="#m4f032314a6" x="521.181818" y="278.93558" style="fill: #0000ff; stroke: #0000ff"/>
     <use xlink:href="#m4f032314a6" x="622.636364" y="254.434301" style="fill: #0000ff; stroke: #0000ff"/>
    </g>
   </g>
   <g id="line2d_26">
    <path d="M 115.363636 366.665966 
L 216.818182 349.75218 
L 318.272727 321.299082 
L 419.727273 275.457979 
L 521.181818 223.768185 
L 622.636364 175.397918 
" clip-path="url(#p9d5d8f8aba)" style="fill: none; stroke: #ff0000; stroke-width: 2; stroke-linecap: square"/>
    <defs>
     <path id="mdcb45d80e9" d="M 0 3 
C 0.795609 3 1.55874 2.683901 2.12132 2.12132 
C 2.683901 1.55874 3 0.795609 3 0 
C 3 -0.795609 2.683901 -1.55874 2.12132 -2.12132 
C 1.55874 -2.683901 0.795609 -3 0 -3 
C -0.795609 -3 -1.55874 -2.683901 -2.12132 -2.12132 
C -2.683901 -1.55874 -3 -0.795609 -3 0 
C -3 0.795609 -2.683901 1.55874 -2.12132 2.12132 
C -1.55874 2.683901 -0.795609 3 0 3 
z
" style="stroke: #ff0000"/>
    </defs>
    <g clip-path="url(#p9d5d8f8aba)">
     <use xlink:href="#mdcb45d80e9" x="115.363636" y="366.665966" style="fill: #ff0000; stroke: #ff0000"/>
     <use xlink:href="#mdcb45d80e9" x="216.818182" y="349.75218" style="fill: #ff0000; stroke: #ff0000"/>
     <use xlink:href="#mdcb45d80e9" x="318.272727" y="321.299082" style="fill: #ff0000; stroke: #ff0000"/>
     <use xlink:href="#mdcb45d80e9" x="419.727273" y="275.457979" style="fill: #ff0000; stroke: #ff0000"/>
     <use xlink:href="#mdcb45d80e9" x="521.181818" y="223.768185" style="fill: #ff0000; stroke: #ff0000"/>
     <use xlink:href="#mdcb45d80e9" x="622.636364" y="175.397918" style="fill: #ff0000; stroke: #ff0000"/>
    </g>
   </g>
   <g id="line2d_27">
    <path d="M 115.363636 369.36 
L 216.818182 327.01768 
L 318.272727 272.983824 
L 419.727273 175.343699 
L 521.181818 134.265329 
L 622.636364 118.465956 
" clip-path="url(#p9d5d8f8aba)" style="fill: none; stroke-dasharray: 7.4,3.2; stroke-dashoffset: 0; stroke: #008000; stroke-width: 2"/>
    <g clip-path="url(#p9d5d8f8aba)">
     <use xlink:href="#m28a0c7692e" x="115.363636" y="369.36" style="fill: #008000; stroke: #008000"/>
     <use xlink:href="#m28a0c7692e" x="216.818182" y="327.01768" style="fill: #008000; stroke: #008000"/>
     <use xlink:href="#m28a0c7692e" x="318.272727" y="272.983824" style="fill: #008000; stroke: #008000"/>
     <use xlink:href="#m28a0c7692e" x="419.727273" y="175.343699" style="fill: #008000; stroke: #008000"/>
     <use xlink:href="#m28a0c7692e" x="521.181818" y="134.265329" style="fill: #008000; stroke: #008000"/>
     <use xlink:href="#m28a0c7692e" x="622.636364" y="118.465956" style="fill: #008000; stroke: #008000"/>
    </g>
   </g>
   <g id="line2d_28">
    <path d="M 115.363636 365.884138 
L 216.818182 102.982571 
L 318.272727 67.275987 
L 419.727273 66.96 
L 521.181818 66.96 
L 622.636364 66.96 
" clip-path="url(#p9d5d8f8aba)" style="fill: none; stroke-dasharray: 7.4,3.2; stroke-dashoffset: 0; stroke: #800080; stroke-width: 2"/>
    <g clip-path="url(#p9d5d8f8aba)">
     <use xlink:href="#m710cdb3dde" x="115.363636" y="365.884138" style="fill: #800080; stroke: #800080"/>
     <use xlink:href="#m710cdb3dde" x="216.818182" y="102.982571" style="fill: #800080; stroke: #800080"/>
     <use xlink:href="#m710cdb3dde" x="318.272727" y="67.275987" style="fill: #800080; stroke: #800080"/>
     <use xlink:href="#m710cdb3dde" x="419.727273" y="66.96" style="fill: #800080; stroke: #800080"/>
     <use xlink:href="#m710cdb3dde" x="521.181818" y="66.96" style="fill: #800080; stroke: #800080"/>
     <use xlink:href="#m710cdb3dde" x="622.636364" y="66.96" style="fill: #800080; stroke: #800080"/>
    </g>
   </g>
   <g id="line2d_29">
    <path d="M 115.363636 368.09605 
L 216.818182 337.129279 
L 318.272727 301.422696 
L 419.727273 245.492915 
L 521.181818 205.362508 
L 622.636364 184.507335 
" clip-path="url(#p9d5d8f8aba)" style="fill: none; stroke-dasharray: 7.4,3.2; stroke-dashoffset: 0; stroke: #0000ff; stroke-width: 2"/>
    <g clip-path="url(#p9d5d8f8aba)">
     <use xlink:href="#m4f032314a6" x="115.363636" y="368.09605" style="fill: #0000ff; stroke: #0000ff"/>
     <use xlink:href="#m4f032314a6" x="216.818182" y="337.129279" style="fill: #0000ff; stroke: #0000ff"/>
     <use xlink:href="#m4f032314a6" x="318.272727" y="301.422696" style="fill: #0000ff; stroke: #0000ff"/>
     <use xlink:href="#m4f032314a6" x="419.727273" y="245.492915" style="fill: #0000ff; stroke: #0000ff"/>
     <use xlink:href="#m4f032314a6" x="521.181818" y="205.362508" style="fill: #0000ff; stroke: #0000ff"/>
     <use xlink:href="#m4f032314a6" x="622.636364" y="184.507335" style="fill: #0000ff; stroke: #0000ff"/>
    </g>
   </g>
   <g id="line2d_30">
    <path d="M 115.363636 365.884138 
L 216.818182 232.853417 
L 318.272727 116.886019 
L 419.727273 74.543699 
L 521.181818 72.331787 
L 622.636364 70.435862 
" clip-path="url(#p9d5d8f8aba)" style="fill: none; stroke-dasharray: 7.4,3.2; stroke-dashoffset: 0; stroke: #ff0000; stroke-width: 2"/>
    <g clip-path="url(#p9d5d8f8aba)">
     <use xlink:href="#mdcb45d80e9" x="115.363636" y="365.884138" style="fill: #ff0000; stroke: #ff0000"/>
     <use xlink:href="#mdcb45d80e9" x="216.818182" y="232.853417" style="fill: #ff0000; stroke: #ff0000"/>
     <use xlink:href="#mdcb45d80e9" x="318.272727" y="116.886019" style="fill: #ff0000; stroke: #ff0000"/>
     <use xlink:href="#mdcb45d80e9" x="419.727273" y="74.543699" style="fill: #ff0000; stroke: #ff0000"/>
     <use xlink:href="#mdcb45d80e9" x="521.181818" y="72.331787" style="fill: #ff0000; stroke: #ff0000"/>
     <use xlink:href="#mdcb45d80e9" x="622.636364" y="70.435862" style="fill: #ff0000; stroke: #ff0000"/>
    </g>
   </g>
   <g id="patch_3">
    <path d="M 90 384.48 
L 90 51.84 
" style="fill: none; stroke: #000000; stroke-width: 0.8; stroke-linejoin: miter; stroke-linecap: square"/>
   </g>
   <g id="patch_4">
    <path d="M 648 384.48 
L 648 51.84 
" style="fill: none; stroke: #000000; stroke-width: 0.8; stroke-linejoin: miter; stroke-linecap: square"/>
   </g>
   <g id="patch_5">
    <path d="M 90 384.48 
L 648 384.48 
" style="fill: none; stroke: #000000; stroke-width: 0.8; stroke-linejoin: miter; stroke-linecap: square"/>
   </g>
   <g id="patch_6">
    <path d="M 90 51.84 
L 648 51.84 
" style="fill: none; stroke: #000000; stroke-width: 0.8; stroke-linejoin: miter; stroke-linecap: square"/>
   </g>
  </g>
 </g>
 <defs>
  <clipPath id="p9d5d8f8aba">
   <rect x="90" y="51.84" width="558" height="332.64"/>
  </clipPath>
 </defs>
</svg>
